<?xml version="1.0" encoding="UTF-8" standalone="no"?>
<!-- Created with Inkscape (http://www.inkscape.org/) -->

<svg
   xmlns:dc="http://purl.org/dc/elements/1.1/"
   xmlns:cc="http://creativecommons.org/ns#"
   xmlns:rdf="http://www.w3.org/1999/02/22-rdf-syntax-ns#"
   xmlns:svg="http://www.w3.org/2000/svg"
   xmlns="http://www.w3.org/2000/svg"
   xmlns:sodipodi="http://sodipodi.sourceforge.net/DTD/sodipodi-0.dtd"
   xmlns:inkscape="http://www.inkscape.org/namespaces/inkscape"
   version="1.1"
   width="800"
   height="450"
   id="svg3358"
   inkscape:version="0.91 r13725"
   sodipodi:docname="Cisco_logo.svg">
  <sodipodi:namedview
     pagecolor="#2196F3"
     bordercolor="#666666"
     borderopacity="1"
     objecttolerance="10"
     gridtolerance="10"
     guidetolerance="10"
     inkscape:pageopacity="0"
     inkscape:pageshadow="2"
     inkscape:window-width="1500"
     inkscape:window-height="937"
     id="namedview3375"
     showgrid="false"
     inkscape:zoom="1.64"
     inkscape:cx="400"
     inkscape:cy="-18.902439"
     inkscape:window-x="-8"
     inkscape:window-y="-8"
     inkscape:window-maximized="1"
     inkscape:current-layer="svg3358" />
  <defs
     id="defs3360">
    <clipPath
       id="clipPath274">
      <path
         d="m 84.461,713.596 77.163,0 0,43.961 -77.163,0 0,-43.961 z"
         id="path276" />
    </clipPath>
  </defs>
  <metadata
     id="metadata3363">
    <rdf:RDF>
      <cc:Work
         rdf:about="">
        <dc:format>image/svg+xml</dc:format>
        <dc:type
           rdf:resource="http://purl.org/dc/dcmitype/StillImage" />
        <dc:title />
      </cc:Work>
    </rdf:RDF>
  </metadata>
  <g
     transform="translate(0,-602.36218)"
     id="layer1"
     style="fill:#2196F3">
    <path
       d="m 271.00014,1021.205 -32.63478,0 0,-129.33009 32.63478,0 0,129.33009 z"
       id="path268"
       style="fill:#2196F3;fill-opacity:1;fill-rule:nonzero;stroke:none" />
    <g
       transform="matrix(10.337276,0,0,-10.337276,-861.34511,8446.2018)"
       id="g270"
       style="fill:#2196F3">
      <g
         clip-path="url(#clipPath274)"
         id="g272"
         style="fill:#2196F3">
        <g
           transform="translate(134.9958,727.2001)"
           id="g278"
           style="fill:#2196F3">
          <path
             d="m 0,0 c -0.129,0.066 -1.146,0.668 -2.656,0.668 -2.041,0 -3.457,-1.421 -3.457,-3.337 0,-1.859 1.355,-3.34 3.457,-3.34 1.484,0 2.517,0.589 2.656,0.664 l 0,-3.358 c -0.396,-0.111 -1.475,-0.445 -2.877,-0.445 -3.551,0 -6.668,2.448 -6.668,6.479 0,3.736 2.82,6.476 6.668,6.476 1.48,0 2.578,-0.361 2.877,-0.449 L 0,0 z"
             id="path280"
             style="fill:#2196F3;fill-opacity:1;fill-rule:nonzero;stroke:none" />
        </g>
        <g
           transform="translate(102.0426,727.2001)"
           id="g282"
           style="fill:#2196F3">
          <path
             d="m 0,0 c -0.127,0.066 -1.142,0.668 -2.652,0.668 -2.045,0 -3.46,-1.421 -3.46,-3.337 0,-1.859 1.356,-3.34 3.46,-3.34 1.484,0 2.516,0.589 2.652,0.664 l 0,-3.358 c -0.392,-0.111 -1.469,-0.445 -2.879,-0.445 -3.549,0 -6.662,2.448 -6.662,6.479 0,3.736 2.82,6.476 6.662,6.476 1.486,0 2.582,-0.361 2.879,-0.449 L 0,0 z"
             id="path284"
             style="fill:#2196F3;fill-opacity:1;fill-rule:nonzero;stroke:none" />
        </g>
        <g
           transform="translate(144.9274,727.8212)"
           id="g286"
           style="fill:#2196F3">
          <path
             d="m 0,0 c -1.873,0 -3.264,-1.474 -3.264,-3.29 0,-1.82 1.391,-3.293 3.264,-3.293 1.871,0 3.266,1.473 3.266,3.293 C 3.266,-1.474 1.871,0 0,0 m 6.611,-3.29 c 0,-3.579 -2.763,-6.479 -6.611,-6.479 -3.848,0 -6.607,2.9 -6.607,6.479 0,3.573 2.759,6.476 6.607,6.476 3.848,0 6.611,-2.903 6.611,-6.476"
             id="path288"
             style="fill:#2196F3;fill-opacity:1;fill-rule:nonzero;stroke:none" />
        </g>
        <g
           transform="translate(121.5124,727.9413)"
           id="g290"
           style="fill:#2196F3">
          <path
             d="m 0,0 c -0.047,0.015 -1.376,0.382 -2.468,0.382 -1.265,0 -1.953,-0.424 -1.953,-1.025 0,-0.762 0.928,-1.028 1.447,-1.192 l 0.871,-0.277 c 2.049,-0.652 2.983,-2.055 2.983,-3.579 0,-3.143 -2.764,-4.199 -5.18,-4.199 -1.679,0 -3.252,0.309 -3.407,0.342 l 0,2.879 c 0.278,-0.07 1.602,-0.465 2.981,-0.465 1.571,0 2.293,0.459 2.293,1.168 0,0.634 -0.625,1 -1.408,1.246 -0.191,0.064 -0.478,0.154 -0.674,0.218 -1.758,0.556 -3.224,1.589 -3.224,3.66 0,2.34 1.752,3.911 4.662,3.911 1.537,0 2.983,-0.373 3.077,-0.398 L 0,0 z"
             id="path292"
             style="fill:#2196F3;fill-opacity:1;fill-rule:nonzero;stroke:none" />
        </g>
        <g
           transform="translate(89.154,744.2304)"
           id="g294"
           style="fill:#2196F3">
          <path
             d="M 0,0 C 0,0.862 -0.704,1.561 -1.567,1.561 -2.43,1.561 -3.135,0.862 -3.135,0 l 0,-3.284 c 0,-0.867 0.705,-1.567 1.568,-1.567 0.863,0 1.567,0.7 1.567,1.567 L 0,0 z"
             id="path296"
             style="fill:#2196F3;fill-opacity:1;fill-rule:nonzero;stroke:none" />
        </g>
        <g
           transform="translate(97.7633,748.5409)"
           id="g298"
           style="fill:#2196F3">
          <path
             d="M 0,0 C 0,0.862 -0.704,1.563 -1.567,1.563 -2.431,1.563 -3.135,0.862 -3.135,0 l 0,-7.595 c 0,-0.867 0.704,-1.566 1.568,-1.566 0.863,0 1.567,0.699 1.567,1.566 L 0,0 z"
             id="path300"
             style="fill:#2196F3;fill-opacity:1;fill-rule:nonzero;stroke:none" />
        </g>
        <g
           transform="translate(106.3727,754.4384)"
           id="g302"
           style="fill:#2196F3">
          <path
             d="m 0,0 c 0,0.862 -0.704,1.562 -1.567,1.562 -0.864,0 -1.568,-0.7 -1.568,-1.562 l 0,-16.613 c 0,-0.867 0.704,-1.567 1.568,-1.567 0.863,0 1.567,0.7 1.567,1.567 L 0,0 z"
             id="path304"
             style="fill:#2196F3;fill-opacity:1;fill-rule:nonzero;stroke:none" />
        </g>
        <g
           transform="translate(114.9821,748.5409)"
           id="g306"
           style="fill:#2196F3">
          <path
             d="M 0,0 C 0,0.862 -0.704,1.563 -1.567,1.563 -2.431,1.563 -3.135,0.862 -3.135,0 l 0,-7.595 c 0,-0.867 0.704,-1.566 1.568,-1.566 0.863,0 1.567,0.699 1.567,1.566 L 0,0 z"
             id="path308"
             style="fill:#2196F3;fill-opacity:1;fill-rule:nonzero;stroke:none" />
        </g>
        <g
           transform="translate(123.5817,744.2304)"
           id="g310"
           style="fill:#2196F3">
          <path
             d="M 0,0 C 0,0.862 -0.699,1.561 -1.558,1.561 -2.421,1.561 -3.125,0.862 -3.125,0 l 0,-3.284 c 0,-0.867 0.704,-1.567 1.567,-1.567 0.859,0 1.558,0.7 1.558,1.567 L 0,0 z"
             id="path312"
             style="fill:#2196F3;fill-opacity:1;fill-rule:nonzero;stroke:none" />
        </g>
        <g
           transform="translate(132.195,748.5409)"
           id="g314"
           style="fill:#2196F3">
          <path
             d="M 0,0 C 0,0.862 -0.699,1.563 -1.562,1.563 -2.424,1.563 -3.125,0.862 -3.125,0 l 0,-7.595 c 0,-0.867 0.701,-1.566 1.563,-1.566 0.863,0 1.562,0.699 1.562,1.566 L 0,0 z"
             id="path316"
             style="fill:#2196F3;fill-opacity:1;fill-rule:nonzero;stroke:none" />
        </g>
        <g
           transform="translate(140.8102,754.4384)"
           id="g318"
           style="fill:#2196F3">
          <path
             d="m 0,0 c 0,0.862 -0.699,1.562 -1.562,1.562 -0.864,0 -1.563,-0.7 -1.563,-1.562 l 0,-16.613 c 0,-0.867 0.699,-1.567 1.563,-1.567 0.863,0 1.562,0.7 1.562,1.567 L 0,0 z"
             id="path320"
             style="fill:#2196F3;fill-opacity:1;fill-rule:nonzero;stroke:none" />
        </g>
        <g
           transform="translate(149.4235,748.5409)"
           id="g322"
           style="fill:#2196F3">
          <path
             d="M 0,0 C 0,0.862 -0.699,1.563 -1.582,1.563 -2.445,1.563 -3.144,0.862 -3.144,0 l 0,-7.595 c 0,-0.867 0.699,-1.566 1.562,-1.566 0.883,0 1.582,0.699 1.582,1.566 L 0,0 z"
             id="path324"
             style="fill:#2196F3;fill-opacity:1;fill-rule:nonzero;stroke:none" />
        </g>
        <g
           transform="translate(158.0192,744.2304)"
           id="g326"
           style="fill:#2196F3">
          <path
             d="M 0,0 C 0,0.862 -0.701,1.561 -1.563,1.561 -2.426,1.561 -3.127,0.862 -3.127,0 l 0,-3.284 c 0,-0.867 0.701,-1.567 1.564,-1.567 0.862,0 1.563,0.7 1.563,1.567 L 0,0 z"
             id="path328"
             style="fill:#2196F3;fill-opacity:1;fill-rule:nonzero;stroke:none" />
        </g>
        <g
           transform="translate(156.2126,719.9218)"
           id="g330"
           style="fill:#2196F3">
          <path
             d="m 0,0 0,-0.196 -0.558,0 0,-1.451 -0.229,0 0,1.451 -0.561,0 0,0.196 L 0,0 z"
             id="path332"
             style="fill:#2196F3;fill-opacity:1;fill-rule:nonzero;stroke:none" />
        </g>
        <g
           transform="translate(156.3297,719.9218)"
           id="g334"
           style="fill:#2196F3">
          <path
             d="m 0,0 0.359,0 0.493,-1.351 0.008,0 0.477,1.351 0.352,0 0,-1.647 -0.235,0 0,1.35 -0.008,0 -0.5,-1.35 -0.217,0 -0.488,1.35 -0.011,0 0,-1.35 -0.23,0 L 0,0 z"
             id="path336"
             style="fill:#2196F3;fill-opacity:1;fill-rule:nonzero;stroke:none" />
        </g>
      </g>
    </g>
  </g>
  <path
     style="fill:#2196F3"
     d="m 38.447299,199.31234 c -1.558777,-0.55034 -3.936767,-2.18276 -5.594378,-3.84037 -4.560345,-4.56035 -4.804755,-5.9854 -4.80074,-27.99118 0.0019,-10.31595 0.270767,-19.60173 0.602139,-20.79452 2.422327,-8.71932 11.321167,-13.74401 19.941152,-11.25968 4.34249,1.25153 9.227399,5.86236 10.41123,9.82708 0.528909,1.77135 0.745455,8.49892 0.736004,22.86585 -0.01492,22.68141 -0.08092,23.10049 -4.302561,27.32214 -4.501186,4.50118 -11.008645,5.98347 -16.992846,3.87068 z"
     id="path3377"
     inkscape:connector-curvature="0" />
  <path
     style="fill:#2196F3"
     d="m 39.332338,199.30701 c -1.933294,-0.4889 -6.233496,-3.67358 -7.85541,-5.81763 -2.759053,-3.64725 -3.029867,-6.07691 -2.989644,-26.82217 l 0.03756,-19.36938 1.629997,-3.33159 c 4.691759,-9.58961 16.196964,-11.7126 24.407463,-4.50377 4.567011,4.00984 4.688572,4.72591 4.688572,27.61851 0,13.23799 -0.240743,21.16042 -0.694184,22.84437 -0.8313,3.08721 -4.521116,7.00261 -8.153349,8.65182 -2.444288,1.10983 -8.095273,1.48236 -11.071,0.72984 z"
     id="path3379"
     inkscape:connector-curvature="0" />
  <path
     style="fill:#2196F3"
     d="m 127.8951,199.53329 c -2.89036,-1.07873 -6.08078,-3.49804 -7.8036,-5.91752 -2.98675,-4.1945 -3.01833,-4.70109 -3.01833,-48.41908 0,-46.929092 -0.15245,-45.346217 4.84901,-50.347677 2.10719,-2.10719 3.83472,-3.197275 6.16237,-3.888513 4.05957,-1.205563 5.62154,-1.203715 9.7621,0.01155 4.29609,1.260919 9.12008,5.986482 10.23146,10.0227 0.5689,2.06612 0.70762,13.04228 0.57388,45.40769 -0.1638,39.63835 -0.25451,42.83983 -1.27172,44.88267 -1.45655,2.92516 -4.38101,5.8458 -7.39105,7.3814 -3.11056,1.58689 -9.02824,2.01101 -12.09412,0.86678 z"
     id="path3381"
     inkscape:connector-curvature="0" />
  <path
     style="fill:#2196F3"
     d="m 216.49608,231.66664 c -1.49118,-0.54695 -3.98341,-2.26663 -5.53829,-3.82151 -5.25696,-5.25696 -4.86023,2.66024 -4.86023,-96.99147 0,-99.728778 -0.40449,-91.726749 4.9051,-97.036341 2.89811,-2.898116 7.22646,-4.792929 10.94856,-4.792929 5.72175,0 11.89753,4.048043 14.41899,9.45122 l 1.42275,3.04878 -0.007,89.32927 c -0.007,88.52222 -0.0186,89.35406 -1.24805,92.07317 -1.5341,3.393 -4.37296,6.42163 -7.55613,8.06127 -3.22572,1.66155 -8.95614,1.97299 -12.48527,0.67854 z"
     id="path3383"
     inkscape:connector-curvature="0" />
  <path
     style="fill:#2196F3"
     d="m 306.70337,199.8327 c -4.31332,-1.41525 -7.95941,-4.51197 -10.1412,-8.61319 -1.07121,-2.0136 -1.14486,-4.54213 -1.30387,-44.76374 -0.19231,-48.64686 -0.38952,-46.504574 4.75461,-51.648708 C 302.92547,91.894502 307.24596,90 310.97561,90 c 5.72175,0 11.89753,4.048042 14.41899,9.45122 l 1.42275,3.04878 -0.007,42.68293 c -0.007,41.61108 -0.0386,42.75183 -1.24805,45.42683 -1.5341,3.393 -4.37296,6.42163 -7.55613,8.06127 -2.62829,1.35382 -8.78739,1.98686 -11.30237,1.16167 z"
     id="path3385"
     inkscape:connector-curvature="0" />
  <path
     style="fill:#2196F3"
     d="m 395.72776,199.8327 c -4.31332,-1.41525 -7.95941,-4.51197 -10.1412,-8.61319 -1.03005,-1.93622 -1.15233,-4.01951 -1.31854,-22.46345 -0.15435,-17.1273 -0.0335,-20.77989 0.76698,-23.19005 3.67776,-11.07271 17.71344,-14.46101 25.91775,-6.2567 4.84632,4.84633 4.9928,5.74879 4.77923,29.44675 -0.16621,18.44394 -0.28849,20.52723 -1.31854,22.46345 -1.60497,3.01695 -4.5559,5.99514 -7.38331,7.45152 -2.62829,1.35382 -8.78739,1.98686 -11.30237,1.16167 z"
     id="path3387"
     inkscape:connector-curvature="0" />
  <path
     style="fill:#2196F3"
     d="m 484.75215,199.8327 c -4.31332,-1.41525 -7.95941,-4.51197 -10.1412,-8.61319 -1.07121,-2.0136 -1.14486,-4.54213 -1.30386,-44.76374 C 473.11477,97.80891 472.91756,99.951196 478.0617,94.807062 480.97425,91.894502 485.29474,90 489.02439,90 c 5.25331,0 10.95357,3.463511 13.87256,8.429037 l 1.67622,2.851453 0,43.90244 c 0,41.64682 -0.0583,44.01208 -1.13534,46.03658 -1.60497,3.01695 -4.5559,5.99514 -7.38331,7.45152 -2.62829,1.35382 -8.78739,1.98686 -11.30237,1.16167 z"
     id="path3389"
     inkscape:connector-curvature="0" />
  <path
     style="fill:#2196F3"
     d="m 572.59364,231.66664 c -1.49118,-0.54695 -3.98341,-2.26663 -5.53829,-3.82151 -5.25696,-5.25696 -4.86023,2.66024 -4.86023,-96.99147 0,-99.728778 -0.40449,-91.726749 4.9051,-97.036341 2.89811,-2.898116 7.22647,-4.792929 10.94856,-4.792929 5.25093,0 11.61423,3.923674 14.19786,8.75454 l 1.35092,2.525948 0,90.548782 c 0,87.14036 -0.0427,90.62911 -1.13534,92.68293 -1.60497,3.01694 -4.5559,5.99513 -7.38331,7.45151 -3.22572,1.66155 -8.95614,1.97299 -12.48527,0.67854 z"
     id="path3391"
     inkscape:connector-curvature="0" />
  <path
     style="fill:#2196F3"
     d="m 660.67073,198.96679 c -3.50586,-1.68446 -6.47572,-4.51809 -8.051,-7.68168 -1.01797,-2.04437 -1.10695,-5.24762 -1.25973,-45.3516 -0.16336,-42.87772 -0.15614,-43.17106 1.13614,-46.175028 C 654.84961,94.287696 661.25448,90 667.07317,90 c 5.25093,0 11.61423,3.923674 14.19786,8.75454 l 1.35092,2.52595 0.17248,42.9878 c 0.19239,47.94919 0.35539,45.89562 -4.02806,50.74757 -2.99459,3.31465 -6.33877,4.87439 -11.08344,5.16937 -3.26219,0.20281 -4.50283,-0.0127 -7.0122,-1.21844 z"
     id="path3393"
     inkscape:connector-curvature="0" />
  <path
     style="fill:#2196F3"
     d="m 749.67189,198.96227 c -3.67549,-1.75801 -7.72034,-6.14803 -8.7109,-9.45425 -0.48714,-1.6259 -0.71518,-8.82332 -0.71113,-22.44462 0.006,-19.77111 0.026,-20.09427 1.44142,-23.13389 2.81966,-6.05527 9.80608,-9.99672 16.1686,-9.12164 6.18924,0.85123 11.79374,5.78773 13.4858,11.8784 0.33137,1.19279 0.60026,10.47857 0.60214,20.79452 0.004,20.64557 -0.29721,22.84743 -3.68251,26.94055 -4.5747,5.53118 -12.48441,7.46291 -18.59342,4.54093 z"
     id="path3395"
     inkscape:connector-curvature="0" />
  <path
     style="fill:#2196F3"
     d="m 629.01362,420.43612 c -23.28339,-2.34984 -42.95863,-15.76717 -53.12612,-36.2288 -4.47638,-9.00853 -6.37871,-16.51408 -6.81502,-26.88837 -1.16225,-27.63515 12.94037,-51.54264 37.20451,-63.07099 23.36321,-11.1003 52.68084,-8.23426 72.80536,7.11733 27.33594,20.85265 33.9254,60.70512 14.83001,89.69058 -13.7322,20.84453 -38.4772,32.04681 -64.89874,29.38025 z m 16.71348,-33.17107 c 11.9238,-3.173 21.268,-12.87858 24.14427,-25.07803 2.05453,-8.71411 0.21984,-19.51119 -4.58878,-27.00477 -2.49243,-3.88412 -8.01166,-9.00727 -12.0677,-11.20167 -12.9768,-7.02073 -29.93358,-4.6201 -40.22709,5.69508 -13.31604,13.34409 -13.39928,35.52261 -0.18292,48.73897 4.27688,4.27688 9.47817,7.38732 14.70264,8.79235 4.30534,1.15786 13.97094,1.18866 18.21958,0.0581 l 0,2e-5 z"
     id="path3397"
     inkscape:connector-curvature="0" />
  <path
     style="fill:#2196F3"
     d="m 496.42389,420.43938 c -17.17972,-1.65722 -34.84202,-10.58229 -45.24163,-22.86141 -7.37602,-8.70908 -12.36729,-19.46063 -14.36791,-30.94949 -1.37021,-7.8686 -0.87438,-22.48914 1.00644,-29.67726 3.06667,-11.72019 8.54564,-21.42852 16.71706,-29.62141 17.83344,-17.8803 43.74568,-23.89153 73.05361,-16.94728 l 6.55488,1.55312 0,17.08522 c 0,13.44068 -0.16258,17.01361 -0.76219,16.74956 -9.0981,-4.00658 -15.27728,-5.66431 -23.10578,-6.19874 -22.58947,-1.54212 -39.59711,13.39251 -39.53607,34.71713 0.0442,15.43606 9.05637,27.77972 24.07477,32.97432 1.93867,0.67055 5.71305,1.16076 10.36586,1.34631 8.83373,0.35228 16.49328,-1.01059 24.05614,-4.28033 l 4.90727,-2.12161 0,16.98897 0,16.98897 -3.20122,0.91909 c -6.04049,1.73425 -12.35632,2.82452 -19.66463,3.39459 -8.08319,0.63052 -7.68414,0.63213 -14.8566,-0.0597 z"
     id="path3399"
     inkscape:connector-curvature="0" />
  <path
     style="fill:#2196F3"
     d="m 339.93902,420.48749 c -6.79544,-0.43931 -20.16358,-2.06956 -23.32317,-2.84427 l -1.37195,-0.3364 0,-14.60914 c 0,-13.62651 0.0718,-14.58802 1.06708,-14.29528 16.25511,4.78092 34.71534,5.78565 44.85677,2.44141 5.97987,-1.97193 9.68782,-7.58693 8.30864,-12.5819 -1.46484,-5.30525 -4.98909,-7.62603 -18.58115,-12.23605 -15.15381,-5.13972 -23.07667,-9.71449 -28.39249,-16.39422 -5.07919,-6.3824 -7.25885,-13.18162 -7.25885,-22.6433 0,-17.3058 10.23539,-30.88337 27.61638,-36.63402 10.87598,-3.59841 26.47975,-3.69657 44.79216,-0.28177 l 6.85976,1.27917 0,13.54473 0,13.54474 -6.85976,-1.44682 c -14.08627,-2.97099 -25.93089,-2.80896 -32.55539,0.44535 -4.63689,2.27789 -6.00461,4.16228 -6.00865,8.27848 -0.006,6.06226 3.63839,8.77108 17.99016,13.37198 13.63601,4.37145 19.34793,7.41744 25.6718,13.68992 3.93178,3.89983 5.73968,6.24291 7.19873,9.32972 2.74564,5.80877 3.90148,11.7877 3.51234,18.16868 -1.70731,27.9959 -24.94181,42.70309 -63.52241,40.20899 z"
     id="path3401"
     inkscape:connector-curvature="0" />
  <path
     style="fill:#2196F3"
     d="m 238.41463,354.32927 0,-64.32927 16.15854,0 16.15854,0 0,64.32927 0,64.32927 -16.15854,0 -16.15854,0 0,-64.32927 z"
     id="path3403"
     inkscape:connector-curvature="0" />
  <path
     style="fill:#2196F3"
     d="m 155.93024,420.42563 c -15.48942,-1.51748 -29.89748,-7.9086 -40.66209,-18.03685 -10.69019,-10.05823 -16.979665,-22.22124 -19.237983,-37.20373 -4.986948,-33.08519 12.124563,-62.5527 42.689343,-73.51476 8.3745,-3.00351 13.74489,-3.7954 25.60976,-3.77629 11.04439,0.0178 16.57021,0.70474 25.45732,3.16471 l 3.50609,0.9705 0,16.9732 c 0,9.33526 -0.0858,16.9732 -0.19076,16.9732 -0.10491,0 -1.68032,-0.71859 -3.5009,-1.59686 -1.82057,-0.87828 -5.91918,-2.27835 -9.10801,-3.11127 -7.51631,-1.96325 -18.95289,-2.21831 -24.95645,-0.55658 -17.7667,4.91765 -28.11246,21.60038 -24.80829,40.00384 4.19287,23.35333 27.8866,34.09555 54.63758,24.77149 3.18598,-1.11048 6.27727,-2.22655 6.86953,-2.48016 1.01669,-0.43536 1.06778,0.48575 0.91463,16.49 l -0.16221,16.95111 -4.26829,1.10352 c -10.23759,2.64681 -23.3672,3.798 -32.78927,2.87493 z"
     id="path3405"
     inkscape:connector-curvature="0" />
  <path
     style="fill:#2196F3"
     d="m 747.79595,411.34146 c 0,-4.19207 0.0974,-5.90701 0.21649,-3.81097 0.11906,2.09603 0.11906,5.52591 0,7.62195 -0.11907,2.09604 -0.21649,0.3811 -0.21649,-3.81098 z"
     id="path3407"
     inkscape:connector-curvature="0" />
  <path
     style="fill:#2196F3"
     d="m 747.70244,416.82927 c 0,-1.17378 0.12549,-1.65397 0.27886,-1.06707 0.15337,0.58689 0.15337,1.54725 0,2.13414 -0.15337,0.58689 -0.27886,0.10671 -0.27886,-1.06707 z"
     id="path3409"
     inkscape:connector-curvature="0" />
  <path
     style="fill:#2196F3"
     d="m 745.73171,411.03659 0,-7.62196 -3.04878,0 c -1.67683,0 -3.04878,-0.27439 -3.04878,-0.60975 0,-0.36955 2.64227,-0.60976 6.70731,-0.60976 4.06504,0 6.70732,0.24021 6.70732,0.60976 0,0.33536 -1.23476,0.60975 -2.7439,0.60975 l -2.7439,0 0,7.62196 c 0,6.36856 -0.15041,7.62195 -0.91464,7.62195 -0.76423,0 -0.91463,-1.25339 -0.91463,-7.62195 z"
     id="path3411"
     inkscape:connector-curvature="0" />
  <path
     style="fill:#2196F3"
     d="m 754.87805,410.42683 0,-8.23171 1.69972,0 c 1.60884,0 1.82523,0.35051 4.04673,6.55488 1.29085,3.60518 2.52278,6.75443 2.73763,6.99833 0.21485,0.2439 1.48071,-2.70561 2.81303,-6.55448 2.29851,-6.64005 2.50816,-6.99796 4.09923,-6.99833 l 1.67683,-4e-4 0,8.23171 c 0,6.91057 -0.14679,8.23171 -0.91463,8.23171 -0.76026,0 -0.91464,-1.18964 -0.91464,-7.04818 0,-3.8765 -0.2133,-6.91636 -0.474,-6.75524 -0.2607,0.16113 -1.56125,3.33281 -2.89012,7.04819 -1.66317,4.6501 -2.71021,6.75523 -3.35986,6.75523 -0.64776,0 -1.67986,-2.05585 -3.29076,-6.55488 -1.29085,-3.60518 -2.5839,-6.81555 -2.87345,-7.13415 -0.29843,-0.32838 -0.52644,2.51065 -0.52644,6.55488 0,5.93496 -0.15374,7.13415 -0.91464,7.13415 -0.76784,0 -0.91463,-1.32114 -0.91463,-8.23171 z"
     id="path3413"
     inkscape:connector-curvature="0" />
</svg>
